<svg width="397" height="397" viewBox="0 0 397 397" fill="none" xmlns="http://www.w3.org/2000/svg">
<g clip-path="url(#clip0_220_2)">
<path d="M51.0684 112.911C52.5425 108.347 54.2127 103.857 56.0739 99.4517L142.452 13.0741C146.857 11.2129 151.347 9.54272 155.911 8.0686L51.0684 112.911Z" fill="url(#paint0_linear_220_2)"/>
<path d="M45.5093 135.376C46.1371 131.783 46.8809 128.221 47.7384 124.694L167.694 4.73834C171.221 3.88074 174.783 3.13698 178.376 2.50916L45.5093 135.376Z" fill="url(#paint1_linear_220_2)"/>
<path d="M43.2886 154.504C43.4697 151.405 43.7356 148.321 44.0849 145.255L188.255 1.08498C191.321 0.735618 194.405 0.469788 197.504 0.288696L43.2886 154.504Z" fill="url(#paint2_linear_220_2)"/>
<path d="M43.1497 171.549C43.0917 170.166 43.0506 168.781 43.0262 167.395C43.0019 166.008 42.9945 164.624 43.004 163.241L206.241 0.00396865C207.624 -0.00547171 209.008 0.00192096 210.395 0.0262434C211.781 0.0505578 213.166 0.0917374 214.549 0.149661L43.1497 171.549Z" fill="url(#paint3_linear_220_2)"/>
<path d="M44.5114 187.095C44.1739 184.568 43.8922 182.031 43.667 179.486L222.486 0.666992C225.031 0.892198 227.568 1.17396 230.095 1.51149L44.5114 187.095Z" fill="url(#paint4_linear_220_2)"/>
<path d="M47.0507 201.462C46.5349 199.123 46.0673 196.772 45.6484 194.411L237.411 2.64856C239.772 3.06743 242.123 3.5351 244.462 4.05092L47.0507 201.462Z" fill="url(#paint5_linear_220_2)"/>
<path d="M50.5664 214.853C49.9002 212.671 49.2767 210.476 48.6963 208.27L251.27 5.69604C253.476 6.27642 255.671 6.89995 257.853 7.56612L50.5664 214.853Z" fill="url(#paint6_linear_220_2)"/>
<path d="M54.9229 227.404C54.1254 225.359 53.3662 223.3 52.646 221.227L264.227 9.64624C266.3 10.3665 268.359 11.1256 270.404 11.9232L54.9229 227.404Z" fill="url(#paint7_linear_220_2)"/>
<path d="M60.028 239.206C59.1123 237.283 58.2317 235.346 57.3867 233.394L276.394 14.3866C278.346 15.2316 280.283 16.1122 282.206 17.0278L60.028 239.206Z" fill="url(#paint8_linear_220_2)"/>
<path d="M65.8141 250.326C64.7897 248.516 63.7978 246.689 62.8389 244.847L287.847 19.8391C289.689 20.798 291.516 21.7899 293.326 22.8143L65.8141 250.326Z" fill="url(#paint9_linear_220_2)"/>
<path d="M72.2361 260.811C71.1096 259.107 70.0136 257.384 68.9482 255.646L298.646 25.9484C300.384 27.0137 302.107 28.1097 303.811 29.2362L72.2361 260.811Z" fill="url(#paint10_linear_220_2)"/>
<path d="M79.2599 270.694C78.0359 269.089 76.8406 267.466 75.6743 265.826L308.826 32.6741C310.466 33.8404 312.089 35.0357 313.694 36.2597L79.2599 270.694Z" fill="url(#paint11_linear_220_2)"/>
<path d="M86.8643 279.997C85.5458 278.49 84.2544 276.963 82.9907 275.417L318.417 39.9906C319.963 41.2544 321.49 42.5458 322.997 43.8643L86.8643 279.997Z" fill="url(#paint12_linear_220_2)"/>
<path d="M95.0363 288.732C93.6247 287.32 92.2391 285.887 90.8799 284.435L327.435 47.8798C328.887 49.239 330.32 50.6246 331.732 52.0362L95.0363 288.732Z" fill="url(#paint13_linear_220_2)"/>
<path d="M125.848 21.2245L64.2246 82.8479C71.4039 70.1038 80.3127 58.3064 90.8096 47.8095C101.306 37.3126 113.104 28.4038 125.848 21.2245Z" fill="url(#paint14_linear_220_2)"/>
<path d="M344.931 283.656C343.457 288.219 341.787 292.71 339.926 297.115L253.548 383.492C249.143 385.354 244.653 387.024 240.089 388.498L344.931 283.656Z" fill="url(#paint15_linear_220_2)"/>
<path d="M350.491 261.19C349.863 264.783 349.119 268.346 348.262 271.873L228.306 391.828C224.779 392.686 221.217 393.43 217.624 394.057L350.491 261.19Z" fill="url(#paint16_linear_220_2)"/>
<path d="M352.711 242.062C352.53 245.161 352.264 248.246 351.915 251.312L207.745 395.482C204.679 395.831 201.595 396.097 198.496 396.278L352.711 242.062Z" fill="url(#paint17_linear_220_2)"/>
<path d="M352.85 225.018C352.908 226.401 352.949 227.785 352.974 229.171C352.998 230.558 353.005 231.943 352.996 233.325L189.759 396.563C188.376 396.572 186.992 396.565 185.605 396.54C184.219 396.516 182.834 396.475 181.451 396.417L352.85 225.018Z" fill="url(#paint18_linear_220_2)"/>
<path d="M351.489 209.471C351.826 211.999 352.108 214.536 352.333 217.08L173.514 395.9C170.969 395.674 168.432 395.393 165.905 395.055L351.489 209.471Z" fill="url(#paint19_linear_220_2)"/>
<path d="M348.949 195.104C349.465 197.444 349.933 199.794 350.351 202.155L158.589 393.918C156.228 393.499 153.877 393.031 151.538 392.516L348.949 195.104Z" fill="url(#paint20_linear_220_2)"/>
<path d="M345.434 181.714C346.1 183.896 346.724 186.09 347.304 188.297L144.73 390.87C142.524 390.29 140.329 389.667 138.147 389L345.434 181.714Z" fill="url(#paint21_linear_220_2)"/>
<path d="M341.077 169.163C341.874 171.208 342.634 173.267 343.354 175.339L131.773 386.92C129.7 386.2 127.641 385.441 125.596 384.643L341.077 169.163Z" fill="url(#paint22_linear_220_2)"/>
<path d="M335.972 157.361C336.888 159.283 337.768 161.221 338.613 163.173L119.606 382.18C117.654 381.335 115.717 380.454 113.794 379.539L335.972 157.361Z" fill="url(#paint23_linear_220_2)"/>
<path d="M330.186 146.241C331.21 148.051 332.202 149.877 333.161 151.719L108.153 376.727C106.311 375.768 104.484 374.777 102.674 373.752L330.186 146.241Z" fill="url(#paint24_linear_220_2)"/>
<path d="M323.764 135.755C324.89 137.46 325.986 139.182 327.052 140.921L97.3545 370.618C95.6157 369.553 93.8936 368.457 92.189 367.33L323.764 135.755Z" fill="url(#paint25_linear_220_2)"/>
<path d="M316.74 125.873C317.964 127.477 319.16 129.1 320.326 130.741L87.1745 363.892C85.5338 362.726 83.9109 361.531 82.3066 360.307L316.74 125.873Z" fill="url(#paint26_linear_220_2)"/>
<path d="M309.136 116.57C310.454 118.077 311.746 119.604 313.009 121.15L77.5831 356.576C76.0373 355.312 74.5104 354.021 73.0034 352.702L309.136 116.57Z" fill="url(#paint27_linear_220_2)"/>
<path d="M68.5656 348.687C67.1128 347.327 65.6802 345.942 64.2686 344.53L300.964 107.835C302.375 109.247 303.761 110.679 305.12 112.132L68.5656 348.687Z" fill="url(#paint28_linear_220_2)"/>
<path d="M270.152 375.342L331.775 313.719C324.596 326.463 315.687 338.26 305.19 348.757C294.694 359.254 282.896 368.163 270.152 375.342Z" fill="url(#paint29_linear_220_2)"/>
<path d="M112.911 344.931C108.347 343.457 103.857 341.787 99.4515 339.926L13.0739 253.548C11.2127 249.143 9.54248 244.653 8.06836 240.089L112.911 344.931Z" fill="url(#paint30_linear_220_2)"/>
<path d="M135.376 350.491C131.783 349.863 128.221 349.119 124.694 348.262L4.73846 228.306C3.88086 224.779 3.1371 221.217 2.50928 217.624L135.376 350.491Z" fill="url(#paint31_linear_220_2)"/>
<path d="M154.504 352.711C151.405 352.53 148.321 352.264 145.255 351.915L1.08486 207.746C0.735496 204.679 0.469666 201.595 0.288574 198.496L154.504 352.711Z" fill="url(#paint32_linear_220_2)"/>
<path d="M171.549 352.85C170.166 352.908 168.781 352.949 167.395 352.974C166.008 352.998 164.624 353.005 163.241 352.996L0.00396865 189.759C-0.00547171 188.376 0.00192096 186.992 0.0262434 185.605C0.0505578 184.219 0.0917374 182.834 0.149661 181.451L171.549 352.85Z" fill="url(#paint33_linear_220_2)"/>
<path d="M187.095 351.489C184.568 351.826 182.031 352.108 179.486 352.333L0.666992 173.514C0.892198 170.969 1.17396 168.432 1.51149 165.905L187.095 351.489Z" fill="url(#paint34_linear_220_2)"/>
<path d="M201.462 348.949C199.123 349.465 196.772 349.933 194.411 350.351L2.64844 158.589C3.06731 156.228 3.53498 153.877 4.0508 151.538L201.462 348.949Z" fill="url(#paint35_linear_220_2)"/>
<path d="M214.853 345.434C212.671 346.1 210.476 346.724 208.27 347.304L5.69629 144.73C6.27667 142.524 6.9002 140.329 7.56637 138.147L214.853 345.434Z" fill="url(#paint36_linear_220_2)"/>
<path d="M227.404 341.077C225.359 341.874 223.3 342.634 221.227 343.354L9.646 131.773C10.3662 129.7 11.1253 127.641 11.9229 125.596L227.404 341.077Z" fill="url(#paint37_linear_220_2)"/>
<path d="M239.206 335.972C237.283 336.888 235.346 337.768 233.394 338.613L14.3867 119.606C15.2317 117.654 16.1123 115.717 17.0279 113.794L239.206 335.972Z" fill="url(#paint38_linear_220_2)"/>
<path d="M250.326 330.186C248.516 331.21 246.689 332.202 244.847 333.161L19.8389 108.153C20.7978 106.311 21.7897 104.484 22.8141 102.674L250.326 330.186Z" fill="url(#paint39_linear_220_2)"/>
<path d="M260.811 323.764C259.107 324.89 257.384 325.986 255.646 327.052L25.9482 97.3546C27.0135 95.6157 28.1095 93.8935 29.236 92.189L260.811 323.764Z" fill="url(#paint40_linear_220_2)"/>
<path d="M270.694 316.74C269.089 317.964 267.466 319.16 265.826 320.326L32.6743 87.1743C33.8406 85.5335 35.0359 83.9107 36.2599 82.3064L270.694 316.74Z" fill="url(#paint41_linear_220_2)"/>
<path d="M279.997 309.136C278.49 310.454 276.963 311.746 275.417 313.009L39.9907 77.5831C41.2545 76.0373 42.5459 74.5105 43.8644 73.0034L279.997 309.136Z" fill="url(#paint42_linear_220_2)"/>
<path d="M288.732 300.964C287.32 302.375 285.887 303.761 284.435 305.12L47.8799 68.5655C49.2391 67.1127 50.6247 65.6802 52.0363 64.2686L288.732 300.964Z" fill="url(#paint43_linear_220_2)"/>
<path d="M21.2246 270.152L82.848 331.775C70.1039 324.596 58.3065 315.687 47.8096 305.191C37.3127 294.694 28.4039 282.896 21.2246 270.152Z" fill="url(#paint44_linear_220_2)"/>
<path d="M283.656 51.0685C288.219 52.5426 292.709 54.2128 297.115 56.074L383.492 142.452C385.353 146.857 387.024 151.347 388.498 155.911L283.656 51.0685Z" fill="url(#paint45_linear_220_2)"/>
<path d="M261.19 45.5092C264.783 46.137 268.346 46.8808 271.873 47.7384L391.828 167.693C392.686 171.221 393.429 174.783 394.057 178.376L261.19 45.5092Z" fill="url(#paint46_linear_220_2)"/>
<path d="M242.062 43.2885C245.161 43.4696 248.245 43.7355 251.312 44.0848L395.481 188.254C395.831 191.321 396.097 194.405 396.278 197.504L242.062 43.2885Z" fill="url(#paint47_linear_220_2)"/>
<path d="M225.017 43.1496C226.4 43.0917 227.785 43.0505 229.171 43.0262C230.558 43.0018 231.943 42.9944 233.325 43.0039L396.562 206.241C396.572 207.624 396.564 209.008 396.54 210.395C396.516 211.781 396.475 213.166 396.417 214.549L225.017 43.1496Z" fill="url(#paint48_linear_220_2)"/>
<path d="M209.471 44.5113C211.999 44.1738 214.536 43.8921 217.08 43.6669L395.899 222.486C395.674 225.031 395.392 227.567 395.055 230.095L209.471 44.5113Z" fill="url(#paint49_linear_220_2)"/>
<path d="M195.104 47.0507C197.443 46.5349 199.794 46.0673 202.155 45.6484L393.918 237.411C393.499 239.772 393.031 242.123 392.515 244.462L195.104 47.0507Z" fill="url(#paint50_linear_220_2)"/>
<path d="M181.713 50.566C183.895 49.8999 186.09 49.2763 188.297 48.696L390.87 251.27C390.29 253.476 389.666 255.671 389 257.853L181.713 50.566Z" fill="url(#paint51_linear_220_2)"/>
<path d="M169.163 54.923C171.208 54.1255 173.267 53.3663 175.339 52.6461L386.92 264.227C386.2 266.299 385.441 268.359 384.643 270.404L169.163 54.923Z" fill="url(#paint52_linear_220_2)"/>
<path d="M157.36 60.0278C159.283 59.1121 161.221 58.2315 163.173 57.3865L382.18 276.394C381.335 278.346 380.454 280.283 379.538 282.206L157.36 60.0278Z" fill="url(#paint53_linear_220_2)"/>
<path d="M146.241 65.8142C148.051 64.7898 149.877 63.7979 151.719 62.839L376.727 287.847C375.768 289.689 374.776 291.516 373.752 293.326L146.241 65.8142Z" fill="url(#paint54_linear_220_2)"/>
<path d="M135.755 72.2361C137.46 71.1096 139.182 70.0136 140.921 68.9482L370.618 298.645C369.553 300.384 368.457 302.106 367.33 303.811L135.755 72.2361Z" fill="url(#paint55_linear_220_2)"/>
<path d="M125.873 79.2595C127.477 78.0355 129.1 76.8403 130.741 75.674L363.892 308.826C362.726 310.466 361.531 312.089 360.307 313.693L125.873 79.2595Z" fill="url(#paint56_linear_220_2)"/>
<path d="M116.57 86.8642C118.077 85.5457 119.604 84.2543 121.149 82.9905L356.576 318.417C355.312 319.963 354.021 321.489 352.702 322.996L116.57 86.8642Z" fill="url(#paint57_linear_220_2)"/>
<path d="M348.687 327.434C347.327 328.887 345.942 330.32 344.53 331.731L107.835 95.036C109.246 93.6244 110.679 92.2388 112.132 90.8796L348.687 327.434Z" fill="url(#paint58_linear_220_2)"/>
<path d="M375.342 125.848L313.718 64.2244C326.463 71.4037 338.26 80.3125 348.757 90.8094C359.254 101.306 368.163 113.104 375.342 125.848Z" fill="url(#paint59_linear_220_2)"/>
</g>
<defs>
<linearGradient id="paint0_linear_220_2" x1="110.681" y1="53.2981" x2="-112.112" y2="280.501" gradientUnits="userSpaceOnUse">
<stop stop-color="#4382FB" stop-opacity="0.9"/>
<stop offset="1" stop-color="#D643FB" stop-opacity="0"/>
</linearGradient>
<linearGradient id="paint1_linear_220_2" x1="121.056" y1="59.8285" x2="-161.29" y2="347.763" gradientUnits="userSpaceOnUse">
<stop stop-color="#4382FB" stop-opacity="0.9"/>
<stop offset="1" stop-color="#D643FB" stop-opacity="0"/>
</linearGradient>
<linearGradient id="paint2_linear_220_2" x1="130.974" y1="66.8179" x2="-196.738" y2="401.017" gradientUnits="userSpaceOnUse">
<stop stop-color="#4382FB" stop-opacity="0.9"/>
<stop offset="1" stop-color="#D643FB" stop-opacity="0"/>
</linearGradient>
<linearGradient id="paint3_linear_220_2" x1="140.542" y1="74.007" x2="-224.005" y2="445.77" gradientUnits="userSpaceOnUse">
<stop stop-color="#4382FB" stop-opacity="0.9"/>
<stop offset="1" stop-color="#D643FB" stop-opacity="0"/>
</linearGradient>
<linearGradient id="paint4_linear_220_2" x1="149.669" y1="81.0929" x2="-246.497" y2="485.1" gradientUnits="userSpaceOnUse">
<stop stop-color="#4382FB" stop-opacity="0.9"/>
<stop offset="1" stop-color="#D643FB" stop-opacity="0"/>
</linearGradient>
<linearGradient id="paint5_linear_220_2" x1="158.692" y1="88.4176" x2="-263.792" y2="519.265" gradientUnits="userSpaceOnUse">
<stop stop-color="#4382FB" stop-opacity="0.9"/>
<stop offset="1" stop-color="#D643FB" stop-opacity="0"/>
</linearGradient>
<linearGradient id="paint6_linear_220_2" x1="167.622" y1="95.9273" x2="-276.843" y2="549.19" gradientUnits="userSpaceOnUse">
<stop stop-color="#4382FB" stop-opacity="0.9"/>
<stop offset="1" stop-color="#D643FB" stop-opacity="0"/>
</linearGradient>
<linearGradient id="paint7_linear_220_2" x1="176.462" y1="103.588" x2="-286.28" y2="575.489" gradientUnits="userSpaceOnUse">
<stop stop-color="#4382FB" stop-opacity="0.9"/>
<stop offset="1" stop-color="#D643FB" stop-opacity="0"/>
</linearGradient>
<linearGradient id="paint8_linear_220_2" x1="185.218" y1="111.375" x2="-292.53" y2="598.579" gradientUnits="userSpaceOnUse">
<stop stop-color="#4382FB" stop-opacity="0.9"/>
<stop offset="1" stop-color="#D643FB" stop-opacity="0"/>
</linearGradient>
<linearGradient id="paint9_linear_220_2" x1="193.892" y1="119.272" x2="-295.899" y2="618.759" gradientUnits="userSpaceOnUse">
<stop stop-color="#4382FB" stop-opacity="0.9"/>
<stop offset="1" stop-color="#D643FB" stop-opacity="0"/>
</linearGradient>
<linearGradient id="paint10_linear_220_2" x1="202.49" y1="127.269" x2="-296.601" y2="636.238" gradientUnits="userSpaceOnUse">
<stop stop-color="#4382FB" stop-opacity="0.9"/>
<stop offset="1" stop-color="#D643FB" stop-opacity="0"/>
</linearGradient>
<linearGradient id="paint11_linear_220_2" x1="211.011" y1="135.357" x2="-294.789" y2="651.168" gradientUnits="userSpaceOnUse">
<stop stop-color="#4382FB" stop-opacity="0.9"/>
<stop offset="1" stop-color="#D643FB" stop-opacity="0"/>
</linearGradient>
<linearGradient id="paint12_linear_220_2" x1="219.457" y1="143.53" x2="-290.564" y2="663.646" gradientUnits="userSpaceOnUse">
<stop stop-color="#4382FB" stop-opacity="0.9"/>
<stop offset="1" stop-color="#D643FB" stop-opacity="0"/>
</linearGradient>
<linearGradient id="paint13_linear_220_2" x1="227.827" y1="151.785" x2="-283.991" y2="673.734" gradientUnits="userSpaceOnUse">
<stop stop-color="#4382FB" stop-opacity="0.9"/>
<stop offset="1" stop-color="#D643FB" stop-opacity="0"/>
</linearGradient>
<linearGradient id="paint14_linear_220_2" x1="99.2633" y1="47.8091" x2="-31.6883" y2="181.353" gradientUnits="userSpaceOnUse">
<stop stop-color="#4382FB" stop-opacity="0.9"/>
<stop offset="1" stop-color="#D643FB" stop-opacity="0"/>
</linearGradient>
<linearGradient id="paint15_linear_220_2" x1="299.701" y1="328.885" x2="76.909" y2="556.088" gradientUnits="userSpaceOnUse">
<stop stop-color="#4382FB" stop-opacity="0.9"/>
<stop offset="1" stop-color="#D643FB" stop-opacity="0"/>
</linearGradient>
<linearGradient id="paint16_linear_220_2" x1="293.171" y1="318.509" x2="10.8249" y2="606.444" gradientUnits="userSpaceOnUse">
<stop stop-color="#4382FB" stop-opacity="0.9"/>
<stop offset="1" stop-color="#D643FB" stop-opacity="0"/>
</linearGradient>
<linearGradient id="paint17_linear_220_2" x1="286.182" y1="308.592" x2="-41.532" y2="642.79" gradientUnits="userSpaceOnUse">
<stop stop-color="#4382FB" stop-opacity="0.9"/>
<stop offset="1" stop-color="#D643FB" stop-opacity="0"/>
</linearGradient>
<linearGradient id="paint18_linear_220_2" x1="278.993" y1="299.025" x2="-85.5536" y2="670.787" gradientUnits="userSpaceOnUse">
<stop stop-color="#4382FB" stop-opacity="0.9"/>
<stop offset="1" stop-color="#D643FB" stop-opacity="0"/>
</linearGradient>
<linearGradient id="paint19_linear_220_2" x1="271.907" y1="289.897" x2="-124.261" y2="693.904" gradientUnits="userSpaceOnUse">
<stop stop-color="#4382FB" stop-opacity="0.9"/>
<stop offset="1" stop-color="#D643FB" stop-opacity="0"/>
</linearGradient>
<linearGradient id="paint20_linear_220_2" x1="264.582" y1="280.873" x2="-157.904" y2="711.72" gradientUnits="userSpaceOnUse">
<stop stop-color="#4382FB" stop-opacity="0.9"/>
<stop offset="1" stop-color="#D643FB" stop-opacity="0"/>
</linearGradient>
<linearGradient id="paint21_linear_220_2" x1="257.072" y1="271.945" x2="-187.391" y2="725.207" gradientUnits="userSpaceOnUse">
<stop stop-color="#4382FB" stop-opacity="0.9"/>
<stop offset="1" stop-color="#D643FB" stop-opacity="0"/>
</linearGradient>
<linearGradient id="paint22_linear_220_2" x1="249.412" y1="263.104" x2="-213.328" y2="735.006" gradientUnits="userSpaceOnUse">
<stop stop-color="#4382FB" stop-opacity="0.9"/>
<stop offset="1" stop-color="#D643FB" stop-opacity="0"/>
</linearGradient>
<linearGradient id="paint23_linear_220_2" x1="241.625" y1="254.349" x2="-236.123" y2="741.553" gradientUnits="userSpaceOnUse">
<stop stop-color="#4382FB" stop-opacity="0.9"/>
<stop offset="1" stop-color="#D643FB" stop-opacity="0"/>
</linearGradient>
<linearGradient id="paint24_linear_220_2" x1="233.727" y1="245.674" x2="-256.062" y2="745.16" gradientUnits="userSpaceOnUse">
<stop stop-color="#4382FB" stop-opacity="0.9"/>
<stop offset="1" stop-color="#D643FB" stop-opacity="0"/>
</linearGradient>
<linearGradient id="paint25_linear_220_2" x1="225.731" y1="237.076" x2="-273.36" y2="746.046" gradientUnits="userSpaceOnUse">
<stop stop-color="#4382FB" stop-opacity="0.9"/>
<stop offset="1" stop-color="#D643FB" stop-opacity="0"/>
</linearGradient>
<linearGradient id="paint26_linear_220_2" x1="217.643" y1="228.556" x2="-288.155" y2="744.366" gradientUnits="userSpaceOnUse">
<stop stop-color="#4382FB" stop-opacity="0.9"/>
<stop offset="1" stop-color="#D643FB" stop-opacity="0"/>
</linearGradient>
<linearGradient id="paint27_linear_220_2" x1="209.469" y1="220.11" x2="-300.551" y2="740.224" gradientUnits="userSpaceOnUse">
<stop stop-color="#4382FB" stop-opacity="0.9"/>
<stop offset="1" stop-color="#D643FB" stop-opacity="0"/>
</linearGradient>
<linearGradient id="paint28_linear_220_2" x1="201.215" y1="211.74" x2="-310.603" y2="733.687" gradientUnits="userSpaceOnUse">
<stop stop-color="#4382FB" stop-opacity="0.9"/>
<stop offset="1" stop-color="#D643FB" stop-opacity="0"/>
</linearGradient>
<linearGradient id="paint29_linear_220_2" x1="305.19" y1="340.303" x2="174.24" y2="473.846" gradientUnits="userSpaceOnUse">
<stop stop-color="#4382FB" stop-opacity="0.9"/>
<stop offset="1" stop-color="#D643FB" stop-opacity="0"/>
</linearGradient>
<linearGradient id="paint30_linear_220_2" x1="67.6811" y1="285.318" x2="-155.111" y2="512.522" gradientUnits="userSpaceOnUse">
<stop stop-color="#4382FB" stop-opacity="0.9"/>
<stop offset="1" stop-color="#D643FB" stop-opacity="0"/>
</linearGradient>
<linearGradient id="paint31_linear_220_2" x1="78.0565" y1="274.943" x2="-204.29" y2="562.878" gradientUnits="userSpaceOnUse">
<stop stop-color="#4382FB" stop-opacity="0.9"/>
<stop offset="1" stop-color="#D643FB" stop-opacity="0"/>
</linearGradient>
<linearGradient id="paint32_linear_220_2" x1="87.9744" y1="265.025" x2="-239.737" y2="599.224" gradientUnits="userSpaceOnUse">
<stop stop-color="#4382FB" stop-opacity="0.9"/>
<stop offset="1" stop-color="#D643FB" stop-opacity="0"/>
</linearGradient>
<linearGradient id="paint33_linear_220_2" x1="97.5416" y1="255.458" x2="-267.005" y2="627.221" gradientUnits="userSpaceOnUse">
<stop stop-color="#4382FB" stop-opacity="0.9"/>
<stop offset="1" stop-color="#D643FB" stop-opacity="0"/>
</linearGradient>
<linearGradient id="paint34_linear_220_2" x1="106.669" y1="246.331" x2="-289.496" y2="650.338" gradientUnits="userSpaceOnUse">
<stop stop-color="#4382FB" stop-opacity="0.9"/>
<stop offset="1" stop-color="#D643FB" stop-opacity="0"/>
</linearGradient>
<linearGradient id="paint35_linear_220_2" x1="115.692" y1="237.307" x2="-306.791" y2="668.154" gradientUnits="userSpaceOnUse">
<stop stop-color="#4382FB" stop-opacity="0.9"/>
<stop offset="1" stop-color="#D643FB" stop-opacity="0"/>
</linearGradient>
<linearGradient id="paint36_linear_220_2" x1="124.622" y1="228.378" x2="-319.843" y2="681.641" gradientUnits="userSpaceOnUse">
<stop stop-color="#4382FB" stop-opacity="0.9"/>
<stop offset="1" stop-color="#D643FB" stop-opacity="0"/>
</linearGradient>
<linearGradient id="paint37_linear_220_2" x1="133.462" y1="219.538" x2="-329.281" y2="691.439" gradientUnits="userSpaceOnUse">
<stop stop-color="#4382FB" stop-opacity="0.9"/>
<stop offset="1" stop-color="#D643FB" stop-opacity="0"/>
</linearGradient>
<linearGradient id="paint38_linear_220_2" x1="142.218" y1="210.782" x2="-335.53" y2="697.986" gradientUnits="userSpaceOnUse">
<stop stop-color="#4382FB" stop-opacity="0.9"/>
<stop offset="1" stop-color="#D643FB" stop-opacity="0"/>
</linearGradient>
<linearGradient id="paint39_linear_220_2" x1="150.892" y1="202.107" x2="-338.9" y2="701.594" gradientUnits="userSpaceOnUse">
<stop stop-color="#4382FB" stop-opacity="0.9"/>
<stop offset="1" stop-color="#D643FB" stop-opacity="0"/>
</linearGradient>
<linearGradient id="paint40_linear_220_2" x1="159.49" y1="193.51" x2="-339.602" y2="702.479" gradientUnits="userSpaceOnUse">
<stop stop-color="#4382FB" stop-opacity="0.9"/>
<stop offset="1" stop-color="#D643FB" stop-opacity="0"/>
</linearGradient>
<linearGradient id="paint41_linear_220_2" x1="168.011" y1="184.989" x2="-337.788" y2="700.8" gradientUnits="userSpaceOnUse">
<stop stop-color="#4382FB" stop-opacity="0.9"/>
<stop offset="1" stop-color="#D643FB" stop-opacity="0"/>
</linearGradient>
<linearGradient id="paint42_linear_220_2" x1="176.457" y1="176.543" x2="-333.562" y2="696.659" gradientUnits="userSpaceOnUse">
<stop stop-color="#4382FB" stop-opacity="0.9"/>
<stop offset="1" stop-color="#D643FB" stop-opacity="0"/>
</linearGradient>
<linearGradient id="paint43_linear_220_2" x1="184.827" y1="168.173" x2="-326.99" y2="690.122" gradientUnits="userSpaceOnUse">
<stop stop-color="#4382FB" stop-opacity="0.9"/>
<stop offset="1" stop-color="#D643FB" stop-opacity="0"/>
</linearGradient>
<linearGradient id="paint44_linear_220_2" x1="56.2633" y1="296.736" x2="-74.6874" y2="430.28" gradientUnits="userSpaceOnUse">
<stop stop-color="#4382FB" stop-opacity="0.9"/>
<stop offset="1" stop-color="#D643FB" stop-opacity="0"/>
</linearGradient>
<linearGradient id="paint45_linear_220_2" x1="343.269" y1="96.298" x2="120.475" y2="323.5" gradientUnits="userSpaceOnUse">
<stop stop-color="#4382FB" stop-opacity="0.9"/>
<stop offset="1" stop-color="#D643FB" stop-opacity="0"/>
</linearGradient>
<linearGradient id="paint46_linear_220_2" x1="336.737" y1="102.829" x2="54.391" y2="390.764" gradientUnits="userSpaceOnUse">
<stop stop-color="#4382FB" stop-opacity="0.9"/>
<stop offset="1" stop-color="#D643FB" stop-opacity="0"/>
</linearGradient>
<linearGradient id="paint47_linear_220_2" x1="329.748" y1="109.818" x2="2.03564" y2="444.018" gradientUnits="userSpaceOnUse">
<stop stop-color="#4382FB" stop-opacity="0.9"/>
<stop offset="1" stop-color="#D643FB" stop-opacity="0"/>
</linearGradient>
<linearGradient id="paint48_linear_220_2" x1="322.559" y1="117.007" x2="-41.9882" y2="488.77" gradientUnits="userSpaceOnUse">
<stop stop-color="#4382FB" stop-opacity="0.9"/>
<stop offset="1" stop-color="#D643FB" stop-opacity="0"/>
</linearGradient>
<linearGradient id="paint49_linear_220_2" x1="315.473" y1="124.093" x2="-80.6924" y2="528.1" gradientUnits="userSpaceOnUse">
<stop stop-color="#4382FB" stop-opacity="0.9"/>
<stop offset="1" stop-color="#D643FB" stop-opacity="0"/>
</linearGradient>
<linearGradient id="paint50_linear_220_2" x1="308.148" y1="131.417" x2="-114.336" y2="562.266" gradientUnits="userSpaceOnUse">
<stop stop-color="#4382FB" stop-opacity="0.9"/>
<stop offset="1" stop-color="#D643FB" stop-opacity="0"/>
</linearGradient>
<linearGradient id="paint51_linear_220_2" x1="300.638" y1="138.927" x2="-143.827" y2="592.19" gradientUnits="userSpaceOnUse">
<stop stop-color="#4382FB" stop-opacity="0.9"/>
<stop offset="1" stop-color="#D643FB" stop-opacity="0"/>
</linearGradient>
<linearGradient id="paint52_linear_220_2" x1="292.978" y1="146.588" x2="-169.764" y2="618.488" gradientUnits="userSpaceOnUse">
<stop stop-color="#4382FB" stop-opacity="0.9"/>
<stop offset="1" stop-color="#D643FB" stop-opacity="0"/>
</linearGradient>
<linearGradient id="paint53_linear_220_2" x1="285.191" y1="154.375" x2="-192.557" y2="641.58" gradientUnits="userSpaceOnUse">
<stop stop-color="#4382FB" stop-opacity="0.9"/>
<stop offset="1" stop-color="#D643FB" stop-opacity="0"/>
</linearGradient>
<linearGradient id="paint54_linear_220_2" x1="277.294" y1="162.272" x2="-212.498" y2="661.757" gradientUnits="userSpaceOnUse">
<stop stop-color="#4382FB" stop-opacity="0.9"/>
<stop offset="1" stop-color="#D643FB" stop-opacity="0"/>
</linearGradient>
<linearGradient id="paint55_linear_220_2" x1="269.296" y1="170.269" x2="-229.794" y2="679.239" gradientUnits="userSpaceOnUse">
<stop stop-color="#4382FB" stop-opacity="0.9"/>
<stop offset="1" stop-color="#D643FB" stop-opacity="0"/>
</linearGradient>
<linearGradient id="paint56_linear_220_2" x1="261.209" y1="178.356" x2="-244.588" y2="694.166" gradientUnits="userSpaceOnUse">
<stop stop-color="#4382FB" stop-opacity="0.9"/>
<stop offset="1" stop-color="#D643FB" stop-opacity="0"/>
</linearGradient>
<linearGradient id="paint57_linear_220_2" x1="253.036" y1="186.53" x2="-256.983" y2="706.645" gradientUnits="userSpaceOnUse">
<stop stop-color="#4382FB" stop-opacity="0.9"/>
<stop offset="1" stop-color="#D643FB" stop-opacity="0"/>
</linearGradient>
<linearGradient id="paint58_linear_220_2" x1="244.782" y1="194.784" x2="-267.034" y2="716.733" gradientUnits="userSpaceOnUse">
<stop stop-color="#4382FB" stop-opacity="0.9"/>
<stop offset="1" stop-color="#D643FB" stop-opacity="0"/>
</linearGradient>
<linearGradient id="paint59_linear_220_2" x1="348.757" y1="90.8091" x2="217.805" y2="224.354" gradientUnits="userSpaceOnUse">
<stop stop-color="#4382FB" stop-opacity="0.9"/>
<stop offset="1" stop-color="#D643FB" stop-opacity="0"/>
</linearGradient>
<clipPath id="clip0_220_2">
<rect width="397" height="397" fill="white"/>
</clipPath>
</defs>
</svg>
